<svg width="22" height="22" viewBox="0 0 22 22" fill="none" xmlns="http://www.w3.org/2000/svg">
<g clip-path="url(#clip0_113_235)">
<path fill-rule="evenodd" clip-rule="evenodd" d="M0 11C0 4.92488 4.92488 0 11 0C17.0751 0 22 4.92488 22 11C22 17.0751 17.0751 22 11 22C4.92488 22 0 17.0751 0 11ZM11.0006 5.13333C9.40725 5.13333 9.20728 5.1403 8.58151 5.16876C7.95694 5.19736 7.53065 5.29627 7.15761 5.44133C6.77174 5.59116 6.44444 5.79164 6.11834 6.11783C5.792 6.44394 5.59153 6.77123 5.4412 7.15697C5.29577 7.53014 5.19677 7.95658 5.16867 8.58087C5.14067 9.20668 5.13333 9.40674 5.13333 11C5.13333 12.5933 5.14044 12.7927 5.16876 13.4185C5.1975 14.0431 5.29636 14.4694 5.44133 14.8424C5.5913 15.2283 5.79173 15.5556 6.11797 15.8817C6.44394 16.208 6.77123 16.4089 7.15688 16.5588C7.53014 16.7039 7.95658 16.8027 8.58101 16.8313C9.20682 16.8598 9.40665 16.8668 10.9998 16.8668C12.5933 16.8668 12.7926 16.8598 13.4184 16.8313C14.0429 16.8027 14.4697 16.7039 14.843 16.5588C15.2288 16.4089 15.5556 16.208 15.8815 15.8817C16.2079 15.5556 16.4083 15.2283 16.5587 14.8425C16.7029 14.4694 16.8019 14.0429 16.8312 13.4186C16.8593 12.7928 16.8667 12.5933 16.8667 11C16.8667 9.40674 16.8593 9.20682 16.8312 8.58101C16.8019 7.95644 16.7029 7.53014 16.5587 7.1571C16.4083 6.77123 16.2079 6.44394 15.8815 6.11783C15.5552 5.7915 15.2289 5.59107 14.8427 5.44133C14.4686 5.29627 14.0421 5.19736 13.4175 5.16876C12.7917 5.1403 12.5925 5.13333 10.9987 5.13333H11.0006Z" fill="#A5A6D4"/>
<path fill-rule="evenodd" clip-rule="evenodd" d="M10.4743 6.19043C10.6305 6.1902 10.8048 6.19043 11.0006 6.19043C12.567 6.19043 12.7527 6.19607 13.3713 6.22417C13.9433 6.25034 14.2537 6.3459 14.4606 6.4262C14.7343 6.53253 14.9295 6.65963 15.1347 6.86496C15.34 7.07029 15.4672 7.26586 15.5737 7.53967C15.654 7.7462 15.7497 8.05667 15.7758 8.62867C15.8039 9.2471 15.81 9.43291 15.81 10.9986C15.81 12.5642 15.8039 12.7501 15.7758 13.3685C15.7496 13.9405 15.654 14.251 15.5737 14.4575C15.4674 14.7313 15.34 14.9262 15.1347 15.1315C14.9294 15.3368 14.7345 15.4639 14.4606 15.5702C14.254 15.6509 13.9433 15.7462 13.3713 15.7724C12.7528 15.8005 12.567 15.8066 11.0006 15.8066C9.4341 15.8066 9.24843 15.8005 8.63 15.7724C8.058 15.746 7.74752 15.6504 7.54063 15.5701C7.26682 15.4638 7.07125 15.3367 6.86592 15.1313C6.66059 14.926 6.53349 14.7309 6.42693 14.457C6.34663 14.2505 6.25093 13.94 6.2249 13.368C6.19675 12.7495 6.19116 12.5638 6.19116 10.9971C6.19116 9.43044 6.19675 9.24564 6.2249 8.62721C6.25102 8.05521 6.34663 7.74473 6.42693 7.53793C6.53326 7.26417 6.66059 7.0686 6.86592 6.86326C7.07125 6.65793 7.26682 6.53084 7.54063 6.42423C7.74743 6.34356 8.058 6.24823 8.63 6.22196C9.1712 6.19754 9.38093 6.1902 10.4743 6.18896V6.19043ZM14.1322 7.16453C13.7436 7.16453 13.4282 7.47954 13.4282 7.8683C13.4282 8.25696 13.7436 8.5723 14.1322 8.5723C14.5209 8.5723 14.8362 8.25696 14.8362 7.8683C14.8362 7.47963 14.5209 7.16453 14.1322 7.16453ZM11.0006 7.9871C9.3368 7.9871 7.98783 9.33611 7.98783 10.9999C7.98783 12.6637 9.3368 14.0121 11.0006 14.0121C12.6645 14.0121 14.0129 12.6637 14.0129 10.9999C14.0129 9.33611 12.6645 7.9871 11.0006 7.9871Z" fill="#A5A6D4"/>
<path fill-rule="evenodd" clip-rule="evenodd" d="M11.0005 9.04443C12.0805 9.04443 12.9561 9.91994 12.9561 11C12.9561 12.08 12.0805 12.9556 11.0005 12.9556C9.92038 12.9556 9.04492 12.08 9.04492 11C9.04492 9.91994 9.92038 9.04443 11.0005 9.04443Z" fill="#A5A6D4"/>
</g>
<defs>
<clipPath id="clip0_113_235">
<rect width="22" height="22" fill="white"/>
</clipPath>
</defs>
</svg>
