<svg width="22" height="22" viewBox="0 0 22 22" fill="none" xmlns="http://www.w3.org/2000/svg">
<g clip-path="url(#clip0_113_239)">
<path d="M11.0033 22.0066C17.0803 22.0066 22.0066 17.0803 22.0066 11.0033C22.0066 4.92635 17.0803 0 11.0033 0C4.92635 0 0 4.92635 0 11.0033C0 17.0803 4.92635 22.0066 11.0033 22.0066Z" fill="#A5A6D4"/>
<path fill-rule="evenodd" clip-rule="evenodd" d="M11.0033 5.29395C7.84816 5.29395 5.2937 7.66358 5.2937 10.5811C5.2937 12.2444 6.12538 13.723 7.41911 14.6933V16.7065L9.36631 15.6372C9.88116 15.7824 10.429 15.8616 11.0033 15.8616C14.1518 15.8616 16.7062 13.4986 16.7062 10.5811C16.7062 7.66358 14.1518 5.29395 11.0033 5.29395ZM11.5643 12.4095L10.1122 10.8583L7.2805 12.4095L10.396 9.10253L11.8878 10.6471L14.6864 9.10253L11.5643 12.4095Z" fill="white"/>
</g>
<defs>
<clipPath id="clip0_113_239">
<rect width="22" height="22" fill="white"/>
</clipPath>
</defs>
</svg>
