<svg width="40" height="40" viewBox="0 0 40 40" fill="none" xmlns="http://www.w3.org/2000/svg">
<rect width="40" height="40" rx="20" fill="#B2B4DA"/>
<g clip-path="url(#clip0_103_176)">
<path d="M17.7747 11C13.4821 11 10.0015 14.4806 10.0015 18.7733C10.0015 23.0659 13.4821 26.5465 17.7747 26.5465C19.4254 26.5465 20.9563 26.0317 22.2146 25.1547L22.2156 25.1537L27.9806 30.9188C28.0875 31.0257 28.2576 31.0285 28.3674 30.9188L29.9211 29.365C30.0281 29.258 30.0226 29.0806 29.9202 28.9782L24.1561 23.2141C25.0331 21.9548 25.548 20.4239 25.548 18.7733C25.548 14.4806 22.0674 11 17.7747 11ZM17.7747 24.7175C14.4916 24.7175 11.8304 22.0563 11.8304 18.7733C11.8304 15.4902 14.4917 12.829 17.7747 12.829C21.0577 12.829 23.719 15.4902 23.719 18.7733C23.719 22.0563 21.0578 24.7175 17.7747 24.7175Z" fill="white"/>
</g>
<defs>
<clipPath id="clip0_103_176">
<rect width="20" height="20" fill="white" transform="translate(10 11)"/>
</clipPath>
</defs>
</svg>
