<svg width="22" height="22" viewBox="0 0 22 22" fill="none" xmlns="http://www.w3.org/2000/svg">
<g clip-path="url(#clip0_113_233)">
<path d="M11 0.34375C5.11294 0.34375 0.34375 5.11362 0.34375 11C0.34375 16.8864 5.11362 21.6562 11 21.6562C16.8871 21.6562 21.6562 16.8864 21.6562 11C21.6562 5.11362 16.8864 0.34375 11 0.34375ZM16.2339 7.64431L14.4849 15.8861C14.3557 16.4704 14.0078 16.6121 13.5224 16.3371L10.8584 14.3736L9.57344 15.6111C9.43181 15.7527 9.3115 15.873 9.0365 15.873L9.22556 13.1615L14.1625 8.701C14.3777 8.51194 14.1151 8.40469 13.8311 8.59375L7.72956 12.4348L5.09987 11.6139C4.52856 11.4338 4.5155 11.0426 5.22019 10.7676L15.4942 6.80556C15.9713 6.63369 16.3879 6.92175 16.2332 7.64363L16.2339 7.64431Z" fill="#A5A6D4"/>
</g>
<defs>
<clipPath id="clip0_113_233">
<rect width="22" height="22" fill="white"/>
</clipPath>
</defs>
</svg>
